<?xml version="1.0" standalone="no"?>
<!DOCTYPE svg PUBLIC "-//W3C//DTD SVG 20010904//EN"
 "http://www.w3.org/TR/2001/REC-SVG-20010904/DTD/svg10.dtd">
<svg version="1.0" xmlns="http://www.w3.org/2000/svg"
 width="522.000000pt" height="522.000000pt" viewBox="0 0 522.000000 522.000000"
 preserveAspectRatio="xMidYMid meet">
<metadata>
Created by potrace 1.11, written by Peter Selinger 2001-2013
</metadata>
<g transform="translate(0.000000,522.000000) scale(0.100000,-0.100000)"
fill="#000000" stroke="none">
<path d="M2649 5055 c-1 -8 -2 -23 -2 -32 -1 -10 -4 -20 -8 -23 -14 -11 -49
-90 -39 -90 8 0 7 -6 0 -20 -8 -15 -8 -20 2 -20 9 0 9 -3 2 -8 -6 -4 -11 -18
-11 -32 0 -14 -3 -51 -8 -83 -4 -32 -7 -69 -7 -83 0 -13 -5 -24 -10 -24 -5 0
-7 -4 -4 -9 10 -16 -18 -18 -41 -3 -13 8 -23 11 -23 8 0 -4 -6 -1 -14 6 -8 7
-12 16 -9 21 2 4 -3 7 -11 7 -15 0 -22 19 -16 45 1 5 -2 6 -6 2 -5 -5 -9 -40
-10 -80 -1 -41 -6 -73 -12 -75 -6 -2 -8 -10 -5 -19 4 -11 2 -14 -5 -9 -6 3
-15 -1 -20 -10 -8 -14 -12 -12 -29 12 -11 16 -18 35 -16 42 3 6 1 12 -4 12 -4
0 -9 18 -10 40 -2 22 -7 49 -13 60 -8 15 -8 20 1 20 7 0 9 3 5 8 -13 13 -30 8
-54 -15 -21 -21 -35 -27 -54 -24 -9 1 -1 -145 10 -191 6 -21 8 -38 5 -38 -3 0
1 -8 8 -17 12 -14 12 -15 1 -9 -11 7 -12 4 -3 -12 14 -27 10 -73 -7 -80 -21
-8 -61 18 -57 38 4 19 -24 23 -37 5 -5 -6 -8 -5 -8 4 0 10 -3 11 -14 2 -11 -9
-15 -9 -19 1 -3 7 -6 -2 -6 -19 -1 -18 0 -35 2 -36 1 -2 -4 -11 -11 -20 -9
-10 -10 -17 -2 -22 7 -4 7 -12 0 -24 -5 -10 -7 -21 -4 -24 8 -8 -19 -3 -34 6
-7 5 -10 13 -7 18 4 5 1 9 -5 9 -7 0 -10 7 -6 15 3 8 2 15 -2 15 -4 0 -8 16
-8 35 -1 21 3 32 9 28 6 -4 7 -1 2 8 -5 7 -10 24 -11 38 -2 13 -8 27 -15 31
-8 6 -8 9 1 12 8 2 5 9 -7 20 -17 16 -20 15 -43 -4 -14 -11 -19 -17 -12 -13
11 6 11 3 1 -13 -7 -12 -15 -19 -19 -17 -8 5 -30 -22 -23 -29 4 -3 2 -6 -4 -6
-10 0 0 -86 14 -120 3 -8 5 -18 5 -22 -1 -5 2 -8 7 -8 10 0 27 -64 26 -99 0
-17 -7 -25 -22 -27 -13 -2 -23 1 -23 7 0 6 -7 9 -15 5 -10 -3 -15 1 -16 12 0
11 -5 7 -13 -11 -7 -16 -11 -38 -10 -50 1 -12 3 -27 3 -32 1 -6 11 -15 24 -20
12 -6 21 -17 19 -24 -2 -8 4 -31 12 -52 10 -24 12 -40 6 -44 -6 -4 -7 -11 -4
-17 5 -7 2 -9 -8 -5 -9 3 -21 0 -28 -6 -10 -10 -11 -8 -6 8 6 16 5 17 -5 8
-10 -10 -9 -16 2 -30 7 -10 9 -15 5 -11 -5 5 -15 -1 -23 -12 -15 -21 -39 -29
-27 -8 4 6 -4 3 -17 -7 -25 -19 -39 -75 -20 -75 14 0 5 -62 -11 -71 -17 -11
-38 -11 -38 -1 0 4 -10 9 -22 9 -13 1 -40 3 -61 6 -20 3 -40 1 -43 -4 -3 -5
-10 -7 -15 -4 -5 4 -9 1 -9 -6 0 -6 -8 -9 -20 -6 -25 6 -34 -7 -21 -31 5 -10
11 -30 13 -44 2 -14 10 -33 17 -41 7 -9 14 -23 15 -30 1 -8 8 -22 15 -31 7 -9
10 -16 5 -16 -5 0 -1 -5 9 -11 9 -5 17 -17 17 -24 0 -8 7 -15 17 -15 9 0 13
-3 10 -7 -4 -3 1 -16 12 -27 22 -24 37 -76 36 -125 0 -41 -26 -50 -59 -19 -11
11 -33 28 -48 39 -29 21 -40 15 -46 -30 -3 -24 41 -120 62 -133 6 -4 7 -8 2
-8 -4 0 -1 -11 8 -25 9 -14 14 -30 11 -34 -3 -5 1 -12 7 -14 9 -4 10 -8 3 -14
-6 -4 -11 -17 -11 -28 -2 -55 -5 -65 -20 -65 -8 0 -13 -4 -10 -9 3 -5 0 -11
-8 -14 -14 -6 -16 -30 -3 -43 4 -4 1 -14 -6 -22 -9 -13 -9 -14 1 -8 7 4 12 1
12 -9 0 -9 -4 -14 -8 -11 -5 3 -19 -4 -30 -15 -21 -18 -27 -37 -23 -66 1 -7
-4 -13 -12 -13 -18 0 -18 -80 0 -98 7 -8 11 -18 8 -23 -4 -5 -1 -9 4 -9 6 0
11 -5 11 -10 0 -12 41 -73 53 -78 4 -2 5 -8 1 -13 -3 -5 -1 -9 5 -9 5 0 8 -20
6 -47 -2 -30 2 -52 11 -61 8 -7 12 -18 9 -23 -4 -5 -2 -9 3 -9 5 0 15 -13 22
-30 7 -16 17 -30 22 -30 6 0 8 -6 5 -14 -3 -8 -1 -17 6 -20 9 -3 8 -5 -1 -5
-7 -1 -10 -6 -7 -11 4 -6 9 -22 11 -37 3 -15 10 -33 16 -40 6 -7 7 -13 3 -13
-5 0 8 -15 27 -34 20 -19 33 -37 30 -40 -3 -3 0 -6 6 -6 6 0 14 -9 17 -20 4
-11 11 -17 17 -14 7 5 8 2 3 -6 -4 -7 -9 -32 -10 -54 -3 -55 -4 -58 -14 -51
-5 3 -12 1 -15 -4 -3 -4 -17 -9 -31 -9 -13 1 -22 4 -19 9 3 5 -2 9 -11 9 -24
0 -83 59 -95 95 -6 17 -11 60 -11 96 -1 35 -5 74 -10 86 -5 14 -4 25 2 29 8 5
8 8 0 13 -6 4 -12 21 -14 39 -2 18 -7 35 -10 39 -4 3 -7 18 -7 33 0 47 -98
118 -144 104 -11 -4 -31 -17 -43 -30 -22 -24 -53 -32 -53 -14 0 6 -4 9 -8 8
-21 -6 -107 109 -116 154 -15 72 -101 199 -122 180 -4 -4 -4 -1 0 6 4 7 3 18
-2 25 -6 7 -12 21 -14 32 -4 24 -20 45 -31 38 -4 -2 -6 -1 -5 4 1 4 -3 18 -10
30 -14 25 -5 94 9 71 7 -10 9 -10 9 0 0 6 6 12 14 12 20 0 33 30 35 81 1 24
65 102 74 89 4 -7 55 44 51 51 -2 3 7 15 19 26 22 20 51 24 75 9 6 -4 12 -6
13 -4 6 26 5 38 -2 38 -6 0 -7 5 -4 10 3 6 2 10 -4 10 -6 0 -8 6 -5 13 3 8 -8
28 -24 45 -26 27 -32 30 -64 23 -29 -7 -39 -5 -52 11 -11 13 -15 27 -10 41 4
12 6 23 5 25 -5 8 76 92 89 92 6 0 9 4 6 9 -4 5 0 12 6 14 8 3 6 6 -5 6 -10 1
-15 6 -12 11 10 17 -43 11 -57 -6 -66 -80 -111 -118 -141 -119 -18 -1 -36 0
-42 3 -22 13 -55 10 -65 -6 -5 -9 -10 -13 -10 -9 0 4 -18 -10 -41 -33 -22 -22
-49 -40 -59 -40 -11 0 -35 14 -55 31 -19 17 -46 32 -60 33 -14 0 -25 4 -25 8
0 11 -86 -22 -106 -41 -15 -13 -19 -30 -18 -66 1 -47 -12 -76 -40 -82 -6 -1
-24 -5 -41 -8 -29 -6 -72 -42 -67 -57 1 -5 -2 -8 -6 -8 -13 0 -7 -63 6 -68 7
-2 12 -15 12 -28 0 -13 5 -24 10 -24 6 0 10 -5 10 -11 0 -15 26 -39 34 -32 3
4 6 2 7 -3 0 -5 2 -17 4 -27 2 -10 -7 -28 -20 -39 -14 -12 -22 -25 -19 -30 3
-4 1 -8 -4 -8 -10 0 -23 -31 -26 -60 -1 -8 -5 -21 -9 -27 -5 -8 -4 -13 2 -13
6 0 8 -7 4 -15 -6 -18 -58 -47 -67 -38 -3 4 -6 1 -6 -6 0 -7 -4 -10 -9 -6 -5
3 -12 1 -16 -5 -4 -6 -9 -8 -13 -6 -18 11 -62 -48 -62 -83 0 -11 -5 -23 -10
-26 -6 -4 -7 -11 -3 -18 11 -18 11 -67 -1 -67 -6 0 -5 -5 2 -12 8 -8 9 -15 1
-25 -7 -7 -7 -13 -2 -13 5 0 9 -13 8 -30 0 -16 -4 -30 -8 -30 -5 0 -5 -6 -1
-12 11 -18 12 -48 2 -48 -5 0 -6 -6 -2 -12 11 -18 12 -48 2 -48 -5 0 -6 -6 -2
-12 11 -18 12 -48 2 -48 -5 0 -6 -6 -1 -12 10 -17 10 -88 0 -88 -5 0 -5 -6 -1
-12 12 -19 12 -48 1 -48 -6 0 -5 -5 1 -12 13 -16 13 -28 1 -51 -5 -9 -6 -17
-1 -17 4 0 8 -14 7 -30 0 -17 -4 -30 -8 -30 -5 0 -5 -6 -1 -12 11 -18 12 -48
2 -48 -5 0 -6 -6 -1 -13 11 -17 11 -57 -1 -57 -6 0 -5 -5 1 -11 8 -8 8 -20 3
-35 -5 -13 -6 -24 -2 -24 5 0 9 -11 10 -25 3 -49 5 -55 19 -55 7 0 13 -4 13
-10 0 -5 7 -10 15 -10 9 0 33 -8 54 -18 38 -19 85 -20 261 -8 30 2 60 0 65 -4
9 -6 230 -6 230 0 0 1 39 4 86 5 48 2 98 9 110 16 24 13 30 15 49 18 14 1 50
62 44 73 -3 4 -1 8 5 8 5 0 8 8 6 18 -3 24 13 52 30 52 8 0 15 4 15 10 0 12
22 9 32 -5 5 -6 8 -5 8 3 0 9 9 7 30 -8 16 -12 30 -28 30 -35 0 -8 7 -18 16
-23 9 -5 16 -11 15 -13 -2 -14 13 -48 19 -44 4 3 18 -11 31 -30 13 -19 27 -35
31 -35 4 0 21 -13 36 -30 16 -16 32 -30 36 -30 10 0 27 -18 56 -60 30 -44 46
-60 57 -60 5 0 18 -8 29 -18 28 -26 82 -44 102 -33 10 5 20 9 25 10 15 1 67
32 67 39 0 4 13 22 29 41 17 19 28 38 25 43 -3 4 -1 8 5 8 5 0 8 8 7 17 -2 9
3 28 10 42 7 13 11 28 8 33 -3 4 -2 14 3 21 7 12 9 17 12 36 1 10 33 7 50 -3
12 -8 20 -56 9 -56 -5 0 -4 -9 2 -19 14 -27 20 -100 8 -107 -5 -3 -4 -11 3
-20 6 -7 12 -29 13 -49 2 -19 6 -38 9 -42 4 -3 7 -13 7 -22 1 -37 28 -53 92
-58 46 -3 65 -8 72 -21 13 -22 15 -52 4 -52 -5 0 -4 -9 2 -19 7 -14 7 -22 0
-26 -8 -5 -8 -11 0 -20 8 -10 8 -15 0 -20 -8 -5 -8 -10 0 -20 8 -10 8 -15 0
-20 -8 -5 -8 -10 0 -20 8 -10 8 -15 0 -20 -8 -5 -8 -10 0 -20 6 -7 12 -53 14
-101 3 -49 7 -108 10 -132 6 -45 -8 -72 -36 -72 -8 0 -20 -6 -27 -12 -11 -11
-12 -10 -6 2 6 12 5 13 -6 3 -19 -19 -67 -16 -113 7 -32 15 -46 30 -63 71 -13
28 -23 55 -23 60 0 5 -5 9 -12 9 -6 0 -9 3 -5 6 3 4 1 12 -6 19 -7 7 -30 34
-52 59 -75 87 -100 111 -130 126 -17 8 -33 19 -37 25 -4 5 -8 6 -8 2 0 -4 -21
4 -46 18 -25 14 -53 27 -62 29 -39 7 -78 19 -87 27 -6 4 -26 8 -45 8 -19 -1
-58 0 -87 2 -29 2 -55 0 -59 -3 -3 -4 -17 -4 -30 -2 -13 2 -24 1 -24 -4 0 -4
-10 -8 -22 -9 -13 0 -36 -3 -53 -7 -16 -4 -37 -8 -45 -10 -8 -1 -28 -8 -43
-14 -16 -7 -33 -12 -39 -12 -18 0 -78 -23 -78 -30 0 -3 -10 -6 -22 -7 -11 -1
-25 -8 -29 -15 -5 -7 -9 -8 -9 -3 0 6 -5 2 -11 -8 -6 -9 -14 -15 -18 -13 -15
10 -105 -96 -116 -136 -2 -5 -3 -9 -5 -10 -9 -12 -31 -126 -34 -178 -2 -30 -5
-55 -6 -55 -1 0 -3 -23 -4 -51 -3 -57 -12 -78 -29 -67 -9 5 -9 3 0 -8 10 -12
10 -18 0 -28 -6 -7 -7 -12 -2 -11 21 4 36 0 31 -9 -4 -5 0 -11 6 -14 10 -3 10
-9 0 -27 -7 -12 -11 -25 -8 -28 3 -3 6 1 6 8 0 9 5 7 14 -5 8 -11 12 -25 9
-32 -3 -7 -1 -13 3 -13 5 0 9 -11 9 -24 0 -13 -3 -22 -8 -19 -4 2 -7 -1 -7 -6
0 -6 7 -11 15 -11 8 0 30 -16 49 -35 31 -30 34 -39 26 -60 -7 -17 -6 -25 1
-25 8 0 8 -4 0 -13 -8 -11 -5 -18 12 -34 21 -18 34 -19 247 -16 124 2 239 4
255 4 17 1 44 0 60 -1 17 -1 66 1 110 4 44 4 99 7 123 6 23 0 49 0 57 0 8 0
22 0 30 0 129 1 179 0 183 -5 3 -2 13 0 23 5 10 6 20 7 22 2 3 -4 31 -6 64 -4
32 1 77 2 101 2 23 0 49 0 57 0 8 0 22 0 30 0 129 1 179 0 183 -5 3 -2 13 0
23 5 10 6 20 7 22 2 6 -9 112 -7 128 4 8 4 10 3 5 -4 -5 -8 2 -8 24 -1 16 6
31 15 31 20 5 35 0 44 -31 60 -49 25 -65 40 -51 48 12 8 21 99 10 103 -3 2 -9
28 -12 58 -6 62 -16 118 -24 140 -11 28 -14 45 -15 93 -1 26 -4 47 -7 47 -3 0
-7 24 -7 53 -5 181 -12 296 -18 306 -4 6 -3 11 1 11 5 0 9 17 8 38 0 20 2 42
4 47 3 6 6 19 8 30 10 95 27 118 86 118 9 0 17 2 17 6 0 3 14 7 31 7 39 2 56
19 64 64 5 32 27 60 47 60 5 0 16 -10 26 -21 9 -12 23 -27 29 -34 10 -11 10
-14 0 -18 -9 -4 -9 -6 1 -6 7 -1 11 -5 8 -10 -9 -14 17 -30 55 -34 19 -2 40
-7 47 -11 7 -4 16 -5 22 -1 13 8 37 -33 45 -75 12 -73 20 -257 13 -315 -1 -8
-5 -15 -9 -15 -3 0 -9 -12 -12 -28 -3 -15 -14 -57 -25 -94 -10 -38 -17 -68
-14 -68 3 0 -3 -7 -14 -15 -10 -8 -15 -15 -10 -15 5 0 4 -6 -2 -13 -6 -7 -12
-30 -14 -50 -1 -20 -6 -37 -10 -37 -4 0 -8 -9 -8 -19 0 -11 -9 -23 -20 -26
-11 -4 -18 -10 -16 -14 3 -4 -8 -12 -23 -19 -15 -7 -34 -23 -41 -37 -7 -13
-16 -22 -20 -20 -7 4 -11 -6 -20 -43 -1 -4 -5 -11 -9 -17 -5 -5 -9 -39 -10
-75 -2 -78 11 -110 75 -173 45 -45 115 -77 178 -80 14 -1 26 -6 26 -12 0 -5 5
-4 12 3 8 8 15 9 25 1 9 -9 13 -8 13 0 0 7 5 9 13 4 20 -12 38 -14 117 -13 98
1 110 3 110 12 0 4 10 4 23 -1 14 -5 30 -5 40 1 9 5 21 7 26 3 5 -3 12 -1 16
4 3 5 14 8 25 6 11 -2 20 0 20 4 0 5 12 11 28 14 59 11 87 19 97 26 5 4 237 7
515 6 462 -1 507 0 530 16 16 11 27 28 28 46 5 52 9 67 20 71 7 2 12 10 12 17
0 13 28 30 43 26 5 -1 6 3 2 9 -3 5 0 10 7 10 9 0 9 3 -2 10 -8 5 -10 10 -5
10 6 0 11 12 10 28 0 15 8 36 17 46 10 11 15 22 11 25 -12 9 -12 42 -1 35 6
-4 8 1 4 14 -5 13 -1 22 10 26 16 6 15 8 -2 21 -13 10 -15 14 -5 15 10 0 11 3
2 13 -6 8 -15 43 -20 80 -5 36 -13 72 -17 78 -5 8 -3 9 6 4 8 -5 11 -4 7 2 -4
6 -9 28 -13 48 -3 21 -7 46 -9 56 -6 29 -38 92 -59 117 -11 12 -21 29 -22 38
-6 42 -87 135 -122 141 -8 1 -19 8 -23 15 -7 10 -9 10 -9 0 0 -9 -9 -8 -37 4
-21 9 -44 17 -50 17 -7 0 -13 4 -13 9 0 4 -3 7 -7 7 -5 -1 -10 0 -13 1 -9 3
-55 9 -120 15 -36 3 -69 6 -75 6 -5 1 -37 -1 -70 -4 -39 -4 -65 -2 -76 6 -15
11 -41 52 -45 70 -1 4 -2 8 -4 10 -1 1 -3 19 -6 41 -2 21 -8 44 -14 51 -5 6
-7 14 -4 18 10 10 13 156 3 162 -5 4 -9 21 -9 40 0 19 -5 37 -10 40 -6 4 -8
11 -4 16 3 5 0 16 -6 24 -7 8 -10 15 -7 15 4 0 0 18 -8 39 -7 22 -11 42 -8 45
4 3 1 6 -5 6 -7 0 -11 3 -11 8 1 4 0 10 -1 15 -1 4 -3 10 -4 15 -2 4 -8 27
-16 52 -7 25 -13 48 -12 53 1 4 -2 7 -6 7 -28 0 -16 189 14 236 9 13 15 26 14
29 -1 3 2 20 6 38 4 17 8 41 8 52 1 11 5 25 9 32 4 6 3 14 -3 18 -6 4 -8 10
-5 15 3 5 0 21 -6 37 -6 15 -13 60 -16 98 -2 39 -10 88 -17 110 -9 25 -12 64
-9 107 3 48 1 68 -7 68 -7 0 -10 7 -7 15 4 8 3 17 -2 19 -9 6 -8 37 3 54 4 6
4 12 0 12 -3 0 -1 7 6 15 7 8 9 15 5 15 -4 0 -2 7 5 15 8 10 9 15 1 15 -7 0
-8 8 0 28 20 49 21 72 4 72 -9 0 -14 4 -10 9 3 5 -6 21 -20 35 -16 16 -20 26
-12 29 9 4 9 6 -1 6 -7 1 -10 6 -6 13 4 6 3 8 -2 5 -21 -12 -37 12 -38 57 -1
25 -4 46 -7 46 -6 0 -5 39 1 65 1 6 2 12 1 15 -9 24 -9 90 -1 90 7 0 7 7 -1
21 -8 15 -8 19 0 15 6 -4 11 -2 11 3 0 6 -5 11 -11 11 -5 0 -7 5 -4 10 3 6 -1
10 -10 10 -11 0 -15 7 -13 22 2 16 -5 26 -23 35 -23 11 -26 19 -24 48 2 23 0
33 -7 29 -7 -5 -8 6 -4 32 3 22 7 45 8 52 1 6 4 12 8 12 3 0 5 19 4 43 -1 23
-3 55 -3 70 -1 16 -5 26 -11 22 -6 -4 -10 6 -11 22 -1 40 0 148 1 148 2 0 10
35 14 60 3 16 -2 21 -18 21 -11 0 -25 -4 -31 -8 -5 -5 -21 -17 -34 -28 -13
-11 -27 -20 -31 -20 -3 0 -17 -10 -29 -21 -17 -16 -25 -19 -31 -10 -4 7 -10
12 -14 12 -20 -3 -26 1 -26 15 0 8 -4 12 -10 9 -5 -3 -8 0 -5 7 3 7 -6 34 -19
61 -13 26 -19 44 -13 40 7 -4 6 0 -1 10 -13 16 -19 40 -26 105 -2 18 -6 35 -9
38 -3 3 -3 12 0 20 6 17 -7 18 -27 1 -18 -15 -60 -93 -60 -113 0 -8 -5 -14
-11 -14 -5 0 -7 -5 -4 -10 4 -6 1 -17 -5 -25 -7 -8 -10 -22 -6 -30 3 -8 2 -15
-3 -15 -11 0 -36 30 -25 30 5 0 2 5 -6 11 -11 8 -12 12 -3 16 9 3 10 10 4 22
-6 10 -6 23 -1 31 12 19 3 30 -18 24 -14 -5 -14 -4 -2 4 8 6 17 9 21 6 4 -2
10 0 13 5 4 5 -5 8 -18 7 -27 -3 -38 12 -40 53 -1 13 -8 26 -16 28 -13 4 -13
3 0 -6 8 -6 11 -11 6 -11 -5 0 -18 8 -29 18 -15 12 -18 13 -12 2 4 -8 -1 -6
-12 5 -17 18 -20 35 -21 143 -1 126 -9 152 -46 152 -9 0 -16 7 -16 17 0 9 -3
13 -6 10 -4 -4 -15 3 -25 15 -11 11 -19 16 -19 9 0 -9 -4 -8 -14 1 -8 7 -12
21 -10 31 1 9 -2 17 -8 17 -6 0 -9 3 -6 6 4 3 2 19 -2 35 -6 19 -5 29 2 29 6
0 -2 11 -18 25 -16 15 -24 25 -19 23 6 -2 11 0 13 5 5 16 1 19 -13 7 -8 -7
-15 -22 -15 -35 0 -12 -3 -25 -7 -29 -5 -4 -8 -11 -8 -14 -1 -15 -49 -102 -57
-102 -4 0 -11 0 -15 0 -5 0 -9 5 -9 10 -1 6 -3 11 -4 13 -1 1 -4 29 -6 62 -4
86 -13 128 -31 145 -11 10 -13 11 -8 1 6 -10 2 -11 -16 -6 -30 10 -49 34 -41
54 3 9 1 12 -6 7 -7 -4 -12 -1 -12 7 0 8 -8 21 -17 28 -15 12 -16 12 -8 -1 6
-12 5 -13 -6 -2 -18 16 -29 15 -30 -3z m629 -928 c-10 -7 -10 -10 -1 -14 10
-3 9 -8 -2 -20 -8 -8 -13 -19 -9 -24 8 -14 -26 -23 -39 -10 -8 8 -6 11 8 12
11 0 14 3 8 6 -16 6 -17 43 -2 43 5 0 7 5 4 10 -4 6 -4 18 -1 27 6 14 9 14 26
-2 16 -14 18 -21 8 -28z m-2724 -1112 c3 -8 0 -14 -7 -12 -7 1 -11 -4 -9 -11
1 -8 -2 -11 -8 -7 -5 3 -10 1 -10 -5 0 -6 -4 -9 -9 -6 -15 10 -5 41 13 40 9
-1 16 2 16 7 0 14 7 11 14 -6z m2961 -1305 c-4 -6 1 -7 11 -3 13 5 16 3 11
-10 -3 -9 -3 -17 2 -17 5 0 11 -11 13 -25 3 -14 1 -25 -6 -25 -6 0 -4 -5 4
-10 11 -7 11 -10 2 -10 -8 0 -10 -5 -5 -12 4 -7 8 -29 9 -48 1 -19 3 -37 4
-40 2 -3 4 -9 5 -15 2 -5 4 -12 5 -15 1 -3 3 -36 5 -75 2 -38 8 -92 13 -119 6
-28 9 -57 7 -65 -1 -9 -6 -34 -10 -56 -4 -22 -9 -49 -11 -60 -4 -25 -15 -131
-16 -167 -1 -16 -4 -28 -8 -28 -3 0 -6 -10 -7 -22 -3 -56 -9 -88 -16 -88 -5 0
-6 -4 -3 -9 3 -4 0 -20 -7 -34 -15 -33 -52 -39 -92 -16 -28 16 -64 27 -108 33
-35 5 -58 34 -55 71 1 19 6 35 12 35 5 0 6 3 3 6 -3 4 -2 15 4 25 7 14 6 19
-3 19 -10 0 -10 2 1 9 10 7 14 48 16 182 1 96 3 176 5 179 1 3 2 8 1 13 -1 8
-1 8 64 12 74 5 105 11 114 21 12 12 24 98 22 149 -1 22 -4 75 -6 119 -4 81 0
106 17 106 5 0 6 -4 3 -10z"/>
<path d="M3376 4373 c-6 -14 -5 -15 5 -6 7 7 10 15 7 18 -3 3 -9 -2 -12 -12z"/>
<path d="M1835 4140 c-3 -5 -1 -10 4 -10 6 0 11 5 11 10 0 6 -2 10 -4 10 -3 0
-8 -4 -11 -10z"/>
</g>
</svg>
